<svg xmlns="http://www.w3.org/2000/svg" viewBox="0 0 24 24" fill="#FFFC00">
  <path d="M12.206.793c.99 0 4.347.276 5.93 3.821.529 1.193.403 3.219.299 4.847l-.003.06c-.012.18-.022.345-.03.51.075.045.203.09.401.09.3-.016.659-.12 1.033-.301a.603.603 0 0 1 .274-.074c.12 0 .246.029.373.089.406.199.525.479.53.72.005.241-.096.461-.301.606-.284.195-.714.33-1.155.405-.076.014-.18.026-.285.04-.62.088-.734.104-.765.202-.046.144.054.31.165.506l.036.063c.66 1.118 1.515 2.01 2.54 2.652.334.21.695.37 1.076.48.12.033.18.064.22.097a.43.43 0 0 1 .129.26c.029.177-.06.354-.227.477-.42.312-.924.485-1.42.574-.183.033-.343.093-.47.195-.18.14-.26.33-.303.486l-.013.059c-.023.101-.053.226-.075.335a.612.612 0 0 1-.072.156.62.62 0 0 1-.52.279l-.043-.001c-.125-.008-.253-.027-.385-.047l-.112-.017c-.34-.047-.68-.08-1.024-.098-.3-.015-.602-.027-.87.006-.53.068-.813.323-1.17.651-.272.25-.572.506-.947.738-.704.427-1.514.66-2.25.66-.74 0-1.549-.233-2.251-.66-.376-.232-.676-.488-.948-.738-.357-.328-.64-.583-1.17-.651a7.87 7.87 0 0 0-.87-.006c-.343.018-.683.051-1.023.098l-.113.017c-.131.02-.26.039-.384.047l-.044.001a.621.621 0 0 1-.52-.279.612.612 0 0 1-.073-.156 4.34 4.34 0 0 0-.075-.335l-.013-.059c-.042-.156-.123-.346-.303-.486a.97.97 0 0 0-.47-.195c-.497-.089-1-.262-1.42-.574-.168-.123-.257-.3-.228-.477a.433.433 0 0 1 .13-.26.326.326 0 0 1 .22-.097c.38-.11.742-.27 1.075-.48 1.025-.642 1.88-1.534 2.54-2.652l.036-.063c.111-.196.211-.362.165-.506-.031-.098-.145-.114-.765-.202a4.1 4.1 0 0 1-.284-.04c-.442-.075-.872-.21-1.156-.405a.653.653 0 0 1-.3-.606c.004-.241.123-.521.53-.72a.672.672 0 0 1 .372-.089c.09 0 .18.023.274.074.374.18.733.285 1.033.301.198 0 .326-.045.401-.09a6.83 6.83 0 0 1-.03-.51l-.003-.06c-.104-1.628-.23-3.654.3-4.847C7.86 1.07 11.215.793 12.206.793z"/>
</svg>
