<svg xmlns="http://www.w3.org/2000/svg" viewBox="0 0 24 24" fill="#000000">
  <path d="M12.186 24h-.007c-3.581-.024-6.334-1.205-8.184-3.509C2.35 18.44 1.5 15.586 1.472 12.01v-.017c.03-3.579.879-6.43 2.525-8.482C5.845 1.205 8.6.024 12.18 0h.014c2.746.02 5.043.725 6.826 2.098 1.677 1.29 2.858 3.13 3.509 5.467l-2.04.569c-1.104-3.96-3.898-5.984-8.304-6.015-2.91.022-5.11.936-6.54 2.717C4.307 6.504 3.616 8.914 3.589 12c.027 3.086.718 5.496 2.057 7.164 1.43 1.783 3.631 2.698 6.54 2.717 2.623-.02 4.358-.631 5.8-2.045 1.647-1.613 1.618-3.593 1.09-4.798-.31-.71-.873-1.3-1.634-1.75-.192 1.352-.622 2.446-1.284 3.272-.886 1.102-2.14 1.704-3.73 1.79-1.202.065-2.361-.218-3.259-.801-1.063-.689-1.685-1.74-1.752-2.96-.065-1.182.408-2.256 1.33-3.022.88-.73 2.082-1.158 3.475-1.24 1.095-.063 2.113.016 3.044.234-.02-.882-.163-1.596-.434-2.143-.374-.757-1.025-1.209-1.991-1.384-1.294-.233-2.545.087-3.243.678l-1.307-1.64c1.097-.874 2.852-1.387 4.566-1.079 1.611.29 2.822 1.137 3.498 2.45.572 1.108.764 2.467.707 4.086.023.011.045.024.067.035 1.2.62 2.133 1.508 2.702 2.57.808 1.507.972 3.98-.873 5.79-1.893 1.855-4.238 2.66-7.382 2.682zm-.172-8.479c-1.005.058-1.784.357-2.322.89-.49.486-.71 1.084-.675 1.73.036.66.368 1.222.961 1.628.617.422 1.437.601 2.306.546 1.107-.065 1.943-.478 2.485-1.228.458-.633.755-1.494.884-2.561-1.065-.283-2.251-.412-3.64-.324v-.681z"/>
</svg>
