<svg width="1207" height="172" viewBox="0 0 1207 172" fill="none" xmlns="http://www.w3.org/2000/svg">
<path d="M258.701 171.697C235.629 171.697 217.913 165.634 205.551 153.51C193.184 141.38 187 124.847 187 103.901V3.30896H232.957V95.0846C232.957 107.028 236.044 115.986 242.232 121.956C248.415 127.93 257.685 130.914 270.052 130.914C282.419 130.914 292.616 127.704 299.534 121.268C306.457 114.838 309.914 105.653 309.914 93.7101V3.30896H355.87V123.468H378.572V168.663H332.064V141.655H320.437C313.795 151.394 305.718 158.836 296.216 163.98C286.709 169.12 274.209 171.697 258.706 171.697H258.701Z" fill="#0A0A0A"/>
<path d="M399.377 168.698V48.3676H376.672V3.1072H423.186V35.6748H434.814C439.242 24.0832 446.255 15.4362 455.856 9.73379C465.453 4.03138 476.248 1.18018 488.251 1.18018H502.37V40.925H486.313C471.918 40.925 461.35 44.9757 454.614 53.0672C447.872 61.1636 444.509 71.836 444.509 85.0842V168.708H399.382L399.377 168.698Z" fill="#0A0A0A"/>
<path d="M523.118 141.688V3.39417H568.208V123.507H590.894V168.686H544.419V141.688H532.8H523.118Z" fill="#0A0A0A"/>
<path d="M700.22 168.663V48.5042H677.498V3.30854H724.047V30.317H735.684C742.15 20.7644 750.273 13.3668 760.07 8.13393C769.856 2.8962 782.051 0.279785 796.645 0.279785C819.732 0.279785 837.608 6.57783 850.262 19.1592C862.911 31.7454 869.243 48.6073 869.243 69.73V168.668H823.246V78.2714C823.246 66.1466 819.964 56.9131 813.41 50.5758C806.851 44.2384 797.291 41.0673 784.731 41.0673C772.171 41.0673 762.606 44.2384 756.052 50.5758C749.493 56.9131 746.216 66.1466 746.216 78.2714V168.668H700.22V168.663Z" fill="#0A0A0A"/>
<path d="M1132.59 171.995C1108.21 171.995 1088.96 166.894 1074.83 156.697C1060.7 146.5 1053.08 132.213 1051.97 113.837H1096.3C1097.77 121.741 1101.6 127.618 1107.79 131.477C1113.98 135.336 1122.89 137.265 1134.53 137.265C1153.55 137.265 1163.06 132.027 1163.06 121.555C1163.06 117.328 1161.63 113.974 1158.77 111.495C1155.9 109.016 1151.15 107.131 1144.5 105.844L1107.38 98.6764C1074.14 92.2449 1057.52 76.721 1057.52 52.0949C1057.52 36.2911 1063.89 23.659 1076.63 14.1934C1089.38 4.73277 1107.01 0 1129.54 0C1152.08 0 1169.62 4.87024 1182.73 14.6107C1195.84 24.3512 1203.04 37.9506 1204.34 55.4039H1160.01C1157.98 47.6861 1154.38 42.0844 1149.21 38.5888C1144.04 35.0981 1136.56 33.3503 1126.77 33.3503C1118.27 33.3503 1111.8 34.5925 1107.37 37.0718C1102.94 39.5511 1100.73 43.2725 1100.73 48.236C1100.73 51.7267 1102.11 54.6724 1104.88 57.0584C1107.65 59.4493 1111.9 61.1922 1117.63 62.2969L1155.58 69.4648C1172.94 72.9554 1185.68 78.5621 1193.81 86.2798C1201.94 93.9976 1206 104.47 1206 117.701C1206 134.791 1199.67 148.115 1187.02 157.669C1174.37 167.228 1156.22 172 1132.59 172V171.995Z" fill="#0A0A0A"/>
<path d="M610.95 168.708V68.9482H656.941V168.708H610.95Z" fill="#0A0A0A"/>
<path d="M610.95 48.3082V3.41626H656.941V48.3082H610.95Z" fill="#0A0A0A"/>
<path d="M991.73 66.8449L1062.39 3.48096H1007.53L942.124 62.7083H941.018V30.4792H924.651V3.48096H875.2V48.6596H896.99V168.773H941.018V109.546L959.306 94.6675L1013.9 168.773H1067.66L991.73 66.8449Z" fill="#0A0A0A"/>
<path d="M160 3.00024V163H0V3.00024H160ZM48 35.0002V54.9797H94.001L48.0439 100.937L62.1709 115.064L108.104 69.1301V115.083H128.083V49.1516L128.103 49.1321L128.083 49.1125V35.0002H48Z" fill="#0A0A0A"/>
</svg>
